<svg xmlns="http://www.w3.org/2000/svg" width="24" height="24" viewBox="0 0 24 24">
    <path fill="#000" fill-rule="evenodd" d="M4.609 2C3.17 2 2 3.185 2 4.64v9.683c0 1.456 1.17 2.64 2.609 2.64h2.846c1.308 0 2.371 1.077 2.371 2.4V21l2.892-2.928a3.69 3.69 0 0 1 2.645-1.109h4.028c1.439 0 2.609-1.184 2.609-2.64V4.64C22 3.185 20.83 2 19.391 2H4.61zm3.94 21.932a.89.89 0 0 1-.549-.82v-3.8a.647.647 0 0 0-.646-.645h-2.91A4.45 4.45 0 0 1 0 14.222V4.444A4.45 4.45 0 0 1 4.444 0h15.112A4.45 4.45 0 0 1 24 4.444v9.778a4.45 4.45 0 0 1-4.444 4.445h-4.119a2.03 2.03 0 0 0-1.446.599L9.517 23.74a.89.89 0 0 1-.969.192z"/>
</svg>
