<svg xmlns="http://www.w3.org/2000/svg" width="24" height="24" viewBox="0 0 24 24">
    <path fill="#000" fill-rule="evenodd" d="M12 22.4C6.266 22.4 1.6 17.734 1.6 12S6.266 1.6 12 1.6 22.4 6.266 22.4 12 17.734 22.4 12 22.4zM12 0C5.373 0 0 5.373 0 12s5.373 12 12 12 12-5.373 12-12S18.627 0 12 0zm-.2 10.765h-.194c-2.21 0-3.738 1.567-3.738 3.517 0 1.968 1.587 3.576 3.738 3.576h3.978v-1.95h-3.978c-1.005 0-1.728-.762-1.728-1.727 0-.905.723-1.648 1.728-1.648h3.978l-3.83-4.461h3.83v-1.93H7.847l3.954 4.623z"/>
</svg>
